<?xml version="1.0" standalone="no"?>
<!DOCTYPE svg PUBLIC "-//W3C//DTD SVG 20010904//EN"
 "http://www.w3.org/TR/2001/REC-SVG-20010904/DTD/svg10.dtd">
<svg version="1.0" xmlns="http://www.w3.org/2000/svg"
 width="1951.000000pt" height="1951.000000pt" viewBox="0 0 1951.000000 1951.000000"
 preserveAspectRatio="xMidYMid meet">
<metadata>
Created by potrace 1.11, written by Peter Selinger 2001-2013
</metadata>
<g transform="translate(0.000000,1951.000000) scale(0.100000,-0.100000)"
fill="#000000" stroke="none">
<path d="M9355 19493 c-1005 -47 -1937 -226 -2839 -545 -2705 -954 -4873
-3077 -5879 -5754 -797 -2122 -833 -4455 -101 -6604 635 -1868 1868 -3536
3484 -4715 1226 -894 2656 -1494 4150 -1739 786 -129 1661 -161 2460 -90 2498
223 4802 1395 6464 3289 914 1042 1597 2268 1992 3574 605 2000 553 4168 -146
6126 -412 1154 -1037 2214 -1869 3165 -180 206 -665 690 -873 872 -811 707
-1678 1253 -2633 1658 -1059 448 -2162 700 -3333 760 -180 9 -714 11 -877 3z
m915 -23 c2725 -148 5219 -1399 6970 -3496 181 -217 500 -639 500 -661 0 -5
-552 -560 -1227 -1235 l-1228 -1228 246 -247 c135 -137 495 -502 799 -813 305
-311 680 -692 834 -848 l280 -283 847 847 c757 757 847 844 853 823 36 -131
113 -452 145 -609 263 -1287 265 -2614 6 -3902 -43 -212 -137 -598 -146 -598
-3 0 -991 980 -2195 2178 -1204 1197 -3293 3276 -4643 4620 -1351 1343 -2458
2442 -2461 2442 -3 0 -827 -822 -1833 -1828 l-1827 -1827 1084 -1090 1084
-1090 609 605 c334 333 672 668 750 745 l143 139 162 -159 c138 -136 4930
-4903 7073 -7036 l679 -677 -44 -63 c-172 -249 -427 -572 -655 -834 -261 -298
-850 -872 -1055 -1027 l-35 -26 -5995 34 c-3297 18 -6119 34 -6270 34 l-275 0
-155 136 c-198 174 -678 655 -843 845 -224 258 -428 515 -630 796 l-37 51
1224 1229 1225 1230 -1064 1084 c-586 596 -1071 1088 -1078 1093 -11 7 -223
-200 -855 -835 -462 -464 -843 -841 -846 -838 -4 3 -31 104 -61 223 -391 1543
-392 3199 -5 4746 29 113 54 207 56 209 3 3 125 -114 272 -260 569 -565 4498
-4474 6718 -6686 l2331 -2322 1827 1828 c1004 1006 1826 1833 1826 1839 0 5
-487 499 -1082 1096 l-1081 1087 -748 -747 -749 -748 -212 209 c-770 761
-7708 7669 -7708 7675 0 22 305 428 480 640 544 658 1169 1240 1860 1735 1499
1072 3263 1691 5115 1794 210 12 835 12 1045 1z"/>
</g>
</svg>
